<svg xmlns="http://www.w3.org/2000/svg" width="19.845" height="18.808" viewBox="0 0 23.488 29.035"><defs><style>.a{fill:#3475a6;stroke:#3475a6;}.b{fill:#f0f0ee;}</style></defs><g transform="translate(-3718.009 284.936)"><path class="a" d="M3758.368-240.536h5.189s13.582,7.661,6.2,18.145c-3.278,4.658-15.645,3.407-17.57.677-7.719-8.315,3.934-17.42,3.934-17.42Z" transform="translate(-31 -37.124)"/><path class="a" d="M3796.965-278.81h2.968l3.224-4.1v-1.161s-1.484.716-2.225,0-2.06,0-2.06,0h-1.5s-1.183-.4-1.782,0-1.214.423-1.5,0,0,1.161,0,1.161Z" transform="translate(-68.603)"/><path class="b" d="M10.36,18.647a2.859,2.859,0,0,1-.919,2.211,4.394,4.394,0,0,1-2.423,1.056v2.249H5V21.9a8.608,8.608,0,0,1-2.074-.593,6.961,6.961,0,0,1-1.755-1.064l1.079-2.173a6.714,6.714,0,0,0,1.907,1.17,5.205,5.205,0,0,0,1.952.456,1.811,1.811,0,0,0,.98-.228.744.744,0,0,0,.357-.669.789.789,0,0,0-.266-.608,1.954,1.954,0,0,0-.669-.387q-.4-.144-1.132-.342a13.97,13.97,0,0,1-1.808-.615A3.2,3.2,0,0,1,2.346,15.9a2.594,2.594,0,0,1-.509-1.679,2.874,2.874,0,0,1,.843-2.12A4.047,4.047,0,0,1,5,11.035V8.877H7.018V11a8.53,8.53,0,0,1,1.778.4,7.077,7.077,0,0,1,1.55.737L9.3,14.362a9.342,9.342,0,0,0-1.816-.82,5.346,5.346,0,0,0-1.618-.319,1.5,1.5,0,0,0-.813.19.618.618,0,0,0-.3.555.759.759,0,0,0,.258.585,1.977,1.977,0,0,0,.638.38q.38.144,1.124.372a14.625,14.625,0,0,1,1.831.638,3.2,3.2,0,0,1,1.238.98A2.72,2.72,0,0,1,10.36,18.647Z" transform="translate(3724.194 -283.551)"/></g></svg>